<mxfile host="app.diagrams.net" modified="2024-05-12T17:10:29.968Z" agent="Mozilla/5.0 (Windows NT 10.0; Win64; x64) AppleWebKit/537.36 (KHTML, like Gecko) Chrome/124.0.0.0 Safari/537.36" etag="A278joh2bnuXMi83s6gl" version="24.4.0" type="device">
  <diagram name="Page-1" id="-cHv1giUlXYDG3lOoa0l">
    <mxGraphModel dx="1434" dy="1941" grid="1" gridSize="10" guides="1" tooltips="1" connect="1" arrows="1" fold="1" page="1" pageScale="1" pageWidth="827" pageHeight="1169" math="0" shadow="0">
      <root>
        <mxCell id="0" />
        <mxCell id="1" parent="0" />
        <mxCell id="zrUpR_qJ18v8tZH-mmrC-1" value="" style="rounded=0;whiteSpace=wrap;html=1;" parent="1" vertex="1">
          <mxGeometry x="240" y="-40" width="840" height="580" as="geometry" />
        </mxCell>
        <mxCell id="zrUpR_qJ18v8tZH-mmrC-2" value="&lt;b&gt;&lt;font style=&quot;font-size: 17px;&quot;&gt;Rugby Club System&lt;/font&gt;&lt;/b&gt;" style="text;html=1;align=center;verticalAlign=middle;resizable=0;points=[];autosize=1;strokeColor=none;fillColor=none;" parent="1" vertex="1">
          <mxGeometry x="570" y="-40" width="180" height="30" as="geometry" />
        </mxCell>
        <mxCell id="zrUpR_qJ18v8tZH-mmrC-3" value="&lt;font style=&quot;font-size: 16px;&quot;&gt;User&lt;/font&gt;" style="shape=umlActor;verticalLabelPosition=bottom;verticalAlign=top;html=1;" parent="1" vertex="1">
          <mxGeometry x="110" y="210" width="60" height="120" as="geometry" />
        </mxCell>
        <mxCell id="zrUpR_qJ18v8tZH-mmrC-4" value="Sort a dummy list of people" style="ellipse;whiteSpace=wrap;html=1;fillColor=#fad9d5;strokeColor=#ae4132;" parent="1" vertex="1">
          <mxGeometry x="305" y="70" width="182.5" height="60" as="geometry" />
        </mxCell>
        <mxCell id="zrUpR_qJ18v8tZH-mmrC-5" value="Search in the list and return relevant information" style="ellipse;whiteSpace=wrap;html=1;fillColor=#fad9d5;strokeColor=#ae4132;" parent="1" vertex="1">
          <mxGeometry x="302.5" y="160" width="180" height="60" as="geometry" />
        </mxCell>
        <mxCell id="zrUpR_qJ18v8tZH-mmrC-6" value="User&amp;nbsp;&lt;div&gt;adds data to the database&lt;/div&gt;" style="ellipse;whiteSpace=wrap;html=1;fillColor=#fad9d5;strokeColor=#ae4132;" parent="1" vertex="1">
          <mxGeometry x="305" y="300" width="175" height="60" as="geometry" />
        </mxCell>
        <mxCell id="zrUpR_qJ18v8tZH-mmrC-7" value="Generate random people&amp;nbsp;&lt;div&gt;with coach types and teams&lt;/div&gt;" style="ellipse;whiteSpace=wrap;html=1;fillColor=#fad9d5;strokeColor=#ae4132;" parent="1" vertex="1">
          <mxGeometry x="303.75" y="420" width="175" height="60" as="geometry" />
        </mxCell>
        <mxCell id="4dqnVNa6wX3c2sipjKu8-5" value="" style="endArrow=classic;html=1;rounded=0;exitX=1;exitY=0.3333333333333333;exitDx=0;exitDy=0;exitPerimeter=0;entryX=0;entryY=0.5;entryDx=0;entryDy=0;" parent="1" source="zrUpR_qJ18v8tZH-mmrC-3" target="zrUpR_qJ18v8tZH-mmrC-4" edge="1">
          <mxGeometry width="50" height="50" relative="1" as="geometry">
            <mxPoint x="434" y="350" as="sourcePoint" />
            <mxPoint x="484" y="300" as="targetPoint" />
          </mxGeometry>
        </mxCell>
        <mxCell id="4dqnVNa6wX3c2sipjKu8-7" value="" style="endArrow=classic;html=1;rounded=0;exitX=1;exitY=0.3333333333333333;exitDx=0;exitDy=0;exitPerimeter=0;entryX=0;entryY=0.5;entryDx=0;entryDy=0;" parent="1" source="zrUpR_qJ18v8tZH-mmrC-3" target="zrUpR_qJ18v8tZH-mmrC-5" edge="1">
          <mxGeometry width="50" height="50" relative="1" as="geometry">
            <mxPoint x="434" y="350" as="sourcePoint" />
            <mxPoint x="244" y="360" as="targetPoint" />
          </mxGeometry>
        </mxCell>
        <mxCell id="4dqnVNa6wX3c2sipjKu8-9" value="" style="endArrow=classic;html=1;rounded=0;entryX=0;entryY=0.5;entryDx=0;entryDy=0;exitX=1;exitY=0.3333333333333333;exitDx=0;exitDy=0;exitPerimeter=0;" parent="1" source="zrUpR_qJ18v8tZH-mmrC-3" target="zrUpR_qJ18v8tZH-mmrC-6" edge="1">
          <mxGeometry width="50" height="50" relative="1" as="geometry">
            <mxPoint x="174" y="490" as="sourcePoint" />
            <mxPoint x="224" y="440" as="targetPoint" />
          </mxGeometry>
        </mxCell>
        <mxCell id="4dqnVNa6wX3c2sipjKu8-10" value="" style="endArrow=classic;html=1;rounded=0;entryX=0;entryY=0.5;entryDx=0;entryDy=0;exitX=1;exitY=0.3333333333333333;exitDx=0;exitDy=0;exitPerimeter=0;" parent="1" source="zrUpR_qJ18v8tZH-mmrC-3" target="zrUpR_qJ18v8tZH-mmrC-7" edge="1">
          <mxGeometry width="50" height="50" relative="1" as="geometry">
            <mxPoint x="134" y="560" as="sourcePoint" />
            <mxPoint x="184" y="510" as="targetPoint" />
          </mxGeometry>
        </mxCell>
        <mxCell id="mJgDt7dQZAqYVEUvL-h0-4" value="&lt;font style=&quot;font-size: 16px;&quot;&gt;Maintainer&lt;/font&gt;" style="shape=umlActor;verticalLabelPosition=bottom;verticalAlign=top;html=1;" parent="1" vertex="1">
          <mxGeometry x="1150" y="210" width="60" height="120" as="geometry" />
        </mxCell>
        <mxCell id="mJgDt7dQZAqYVEUvL-h0-5" value="Login" style="ellipse;whiteSpace=wrap;html=1;fillColor=#ffe6cc;strokeColor=#d79b00;" parent="1" vertex="1">
          <mxGeometry x="840" y="80" width="180" height="60" as="geometry" />
        </mxCell>
        <mxCell id="mJgDt7dQZAqYVEUvL-h0-6" value="Add Option in the menu" style="ellipse;whiteSpace=wrap;html=1;fillColor=#d5e8d4;strokeColor=#82b366;" parent="1" vertex="1">
          <mxGeometry x="840" y="190" width="180" height="60" as="geometry" />
        </mxCell>
        <mxCell id="mJgDt7dQZAqYVEUvL-h0-11" value="Verify Login" style="ellipse;whiteSpace=wrap;html=1;fillColor=#ffe6cc;strokeColor=#d79b00;" parent="1" vertex="1">
          <mxGeometry x="710" y="20" width="80" height="40" as="geometry" />
        </mxCell>
        <mxCell id="mJgDt7dQZAqYVEUvL-h0-12" value="Display Error" style="ellipse;whiteSpace=wrap;html=1;fillColor=#ffe6cc;strokeColor=#d79b00;" parent="1" vertex="1">
          <mxGeometry x="710" y="130" width="80" height="40" as="geometry" />
        </mxCell>
        <mxCell id="mJgDt7dQZAqYVEUvL-h0-13" value="&amp;lt;&amp;lt;include&amp;gt;&amp;gt;" style="endArrow=open;endSize=12;dashed=1;html=1;rounded=0;exitX=0;exitY=0;exitDx=0;exitDy=0;entryX=1;entryY=0.5;entryDx=0;entryDy=0;" parent="1" source="mJgDt7dQZAqYVEUvL-h0-5" target="mJgDt7dQZAqYVEUvL-h0-11" edge="1">
          <mxGeometry x="-0.0018" width="160" relative="1" as="geometry">
            <mxPoint x="500" y="120" as="sourcePoint" />
            <mxPoint x="660" y="120" as="targetPoint" />
            <mxPoint as="offset" />
          </mxGeometry>
        </mxCell>
        <mxCell id="mJgDt7dQZAqYVEUvL-h0-14" value="&amp;lt;&amp;lt;extends&amp;gt;&amp;gt;" style="endArrow=open;endSize=12;dashed=1;html=1;rounded=0;exitX=1;exitY=0.5;exitDx=0;exitDy=0;entryX=0;entryY=0.5;entryDx=0;entryDy=0;" parent="1" source="mJgDt7dQZAqYVEUvL-h0-12" target="mJgDt7dQZAqYVEUvL-h0-5" edge="1">
          <mxGeometry width="160" relative="1" as="geometry">
            <mxPoint x="826" y="89" as="sourcePoint" />
            <mxPoint x="720" y="60" as="targetPoint" />
          </mxGeometry>
        </mxCell>
        <mxCell id="mJgDt7dQZAqYVEUvL-h0-15" value="Delete&amp;nbsp;&lt;div&gt;Option&lt;/div&gt;" style="ellipse;whiteSpace=wrap;html=1;fillColor=#d5e8d4;strokeColor=#82b366;" parent="1" vertex="1">
          <mxGeometry x="730" y="320" width="80" height="40" as="geometry" />
        </mxCell>
        <mxCell id="mJgDt7dQZAqYVEUvL-h0-16" value="Update&amp;nbsp;&lt;div&gt;Option&lt;/div&gt;" style="ellipse;whiteSpace=wrap;html=1;fillColor=#d5e8d4;strokeColor=#82b366;" parent="1" vertex="1">
          <mxGeometry x="890" y="410" width="80" height="40" as="geometry" />
        </mxCell>
        <mxCell id="mJgDt7dQZAqYVEUvL-h0-18" value="&amp;lt;&amp;lt;extend&amp;gt;&amp;gt;" style="endArrow=open;endSize=12;dashed=1;html=1;rounded=0;entryX=0;entryY=1;entryDx=0;entryDy=0;exitX=0.5;exitY=0;exitDx=0;exitDy=0;" parent="1" source="mJgDt7dQZAqYVEUvL-h0-15" target="mJgDt7dQZAqYVEUvL-h0-6" edge="1">
          <mxGeometry x="-0.0018" width="160" relative="1" as="geometry">
            <mxPoint x="846" y="229" as="sourcePoint" />
            <mxPoint x="750" y="210" as="targetPoint" />
            <mxPoint as="offset" />
          </mxGeometry>
        </mxCell>
        <mxCell id="mJgDt7dQZAqYVEUvL-h0-21" value="&amp;lt;&amp;lt;extend&amp;gt;&amp;gt;" style="endArrow=open;endSize=12;dashed=1;html=1;rounded=0;entryX=1;entryY=1;entryDx=0;entryDy=0;" parent="1" source="mJgDt7dQZAqYVEUvL-h0-16" target="mJgDt7dQZAqYVEUvL-h0-6" edge="1">
          <mxGeometry x="-0.0018" width="160" relative="1" as="geometry">
            <mxPoint x="780" y="180" as="sourcePoint" />
            <mxPoint x="864" y="235" as="targetPoint" />
            <mxPoint as="offset" />
          </mxGeometry>
        </mxCell>
        <mxCell id="mJgDt7dQZAqYVEUvL-h0-25" value="" style="endArrow=classic;html=1;rounded=0;entryX=1;entryY=0.5;entryDx=0;entryDy=0;exitX=0;exitY=0.3333333333333333;exitDx=0;exitDy=0;exitPerimeter=0;" parent="1" source="mJgDt7dQZAqYVEUvL-h0-4" target="mJgDt7dQZAqYVEUvL-h0-6" edge="1">
          <mxGeometry width="50" height="50" relative="1" as="geometry">
            <mxPoint x="900" y="190" as="sourcePoint" />
            <mxPoint x="950" y="140" as="targetPoint" />
          </mxGeometry>
        </mxCell>
        <mxCell id="mJgDt7dQZAqYVEUvL-h0-27" value="" style="endArrow=classic;html=1;rounded=0;exitX=0;exitY=0.3333333333333333;exitDx=0;exitDy=0;exitPerimeter=0;entryX=1;entryY=0.5;entryDx=0;entryDy=0;" parent="1" source="mJgDt7dQZAqYVEUvL-h0-4" target="mJgDt7dQZAqYVEUvL-h0-5" edge="1">
          <mxGeometry width="50" height="50" relative="1" as="geometry">
            <mxPoint x="900" y="190" as="sourcePoint" />
            <mxPoint x="950" y="140" as="targetPoint" />
          </mxGeometry>
        </mxCell>
        <mxCell id="mJgDt7dQZAqYVEUvL-h0-28" value="" style="endArrow=classic;html=1;rounded=0;entryX=1;entryY=0.5;entryDx=0;entryDy=0;exitX=0;exitY=0.3333333333333333;exitDx=0;exitDy=0;exitPerimeter=0;" parent="1" source="mJgDt7dQZAqYVEUvL-h0-4" target="mJgDt7dQZAqYVEUvL-h0-16" edge="1">
          <mxGeometry width="50" height="50" relative="1" as="geometry">
            <mxPoint x="1060" y="447" as="sourcePoint" />
            <mxPoint x="910" y="310" as="targetPoint" />
          </mxGeometry>
        </mxCell>
        <mxCell id="mJgDt7dQZAqYVEUvL-h0-29" value="" style="endArrow=classic;html=1;rounded=0;entryX=1;entryY=0.5;entryDx=0;entryDy=0;exitX=0;exitY=0.3333333333333333;exitDx=0;exitDy=0;exitPerimeter=0;" parent="1" source="mJgDt7dQZAqYVEUvL-h0-4" target="mJgDt7dQZAqYVEUvL-h0-15" edge="1">
          <mxGeometry width="50" height="50" relative="1" as="geometry">
            <mxPoint x="1060" y="457" as="sourcePoint" />
            <mxPoint x="910" y="320" as="targetPoint" />
          </mxGeometry>
        </mxCell>
        <mxCell id="mJgDt7dQZAqYVEUvL-h0-34" value="Interact with the main menu" style="ellipse;whiteSpace=wrap;html=1;fillColor=#d0cee2;strokeColor=#56517e;" parent="1" vertex="1">
          <mxGeometry x="520" y="230" width="180" height="60" as="geometry" />
        </mxCell>
        <mxCell id="mJgDt7dQZAqYVEUvL-h0-37" value="" style="endArrow=block;endSize=16;endFill=0;html=1;rounded=0;entryX=1;entryY=0.5;entryDx=0;entryDy=0;exitX=0;exitY=0;exitDx=0;exitDy=0;" parent="1" source="mJgDt7dQZAqYVEUvL-h0-34" target="zrUpR_qJ18v8tZH-mmrC-5" edge="1">
          <mxGeometry width="160" relative="1" as="geometry">
            <mxPoint x="647" y="310" as="sourcePoint" />
            <mxPoint x="570" y="354" as="targetPoint" />
          </mxGeometry>
        </mxCell>
        <mxCell id="mJgDt7dQZAqYVEUvL-h0-41" value="" style="endArrow=block;endSize=16;endFill=0;html=1;rounded=0;entryX=1;entryY=0.5;entryDx=0;entryDy=0;exitX=0.5;exitY=1;exitDx=0;exitDy=0;" parent="1" source="mJgDt7dQZAqYVEUvL-h0-34" target="zrUpR_qJ18v8tZH-mmrC-7" edge="1">
          <mxGeometry width="160" relative="1" as="geometry">
            <mxPoint x="657" y="418" as="sourcePoint" />
            <mxPoint x="580" y="462" as="targetPoint" />
          </mxGeometry>
        </mxCell>
        <mxCell id="mJgDt7dQZAqYVEUvL-h0-42" value="" style="endArrow=block;endSize=16;endFill=0;html=1;rounded=0;entryX=1;entryY=0.5;entryDx=0;entryDy=0;exitX=0;exitY=1;exitDx=0;exitDy=0;" parent="1" source="mJgDt7dQZAqYVEUvL-h0-34" target="zrUpR_qJ18v8tZH-mmrC-6" edge="1">
          <mxGeometry width="160" relative="1" as="geometry">
            <mxPoint x="536" y="270" as="sourcePoint" />
            <mxPoint x="530" y="434" as="targetPoint" />
          </mxGeometry>
        </mxCell>
        <mxCell id="mJgDt7dQZAqYVEUvL-h0-43" value="" style="endArrow=block;endSize=16;endFill=0;html=1;rounded=0;entryX=1;entryY=0.5;entryDx=0;entryDy=0;exitX=0.5;exitY=0;exitDx=0;exitDy=0;" parent="1" source="mJgDt7dQZAqYVEUvL-h0-34" target="zrUpR_qJ18v8tZH-mmrC-4" edge="1">
          <mxGeometry width="160" relative="1" as="geometry">
            <mxPoint x="577" y="60" as="sourcePoint" />
            <mxPoint x="500" y="104" as="targetPoint" />
          </mxGeometry>
        </mxCell>
        <mxCell id="mJgDt7dQZAqYVEUvL-h0-47" value="" style="endArrow=classic;html=1;rounded=0;entryX=0;entryY=0.5;entryDx=0;entryDy=0;" parent="1" target="mJgDt7dQZAqYVEUvL-h0-34" edge="1">
          <mxGeometry width="50" height="50" relative="1" as="geometry">
            <mxPoint x="170" y="250" as="sourcePoint" />
            <mxPoint x="253" y="10" as="targetPoint" />
          </mxGeometry>
        </mxCell>
        <mxCell id="22zlf_QuadtL1se1vo4a-1" value="Access a text file (.txt)&amp;nbsp;&lt;div&gt;database from the program&lt;/div&gt;" style="ellipse;whiteSpace=wrap;html=1;fillColor=#fad9d5;strokeColor=#ae4132;" vertex="1" parent="1">
          <mxGeometry x="302.5" y="-10" width="182.5" height="60" as="geometry" />
        </mxCell>
        <mxCell id="22zlf_QuadtL1se1vo4a-4" value="" style="endArrow=classic;html=1;rounded=0;entryX=0;entryY=0.5;entryDx=0;entryDy=0;" edge="1" parent="1" target="22zlf_QuadtL1se1vo4a-1">
          <mxGeometry width="50" height="50" relative="1" as="geometry">
            <mxPoint x="170" y="250" as="sourcePoint" />
            <mxPoint x="195" y="-10" as="targetPoint" />
          </mxGeometry>
        </mxCell>
      </root>
    </mxGraphModel>
  </diagram>
</mxfile>
